<?xml version="1.0" standalone="no"?>
<!DOCTYPE svg PUBLIC "-//W3C//DTD SVG 20010904//EN"
 "http://www.w3.org/TR/2001/REC-SVG-20010904/DTD/svg10.dtd">
<svg version="1.0" xmlns="http://www.w3.org/2000/svg"
 width="240.000000pt" height="240.000000pt" viewBox="0 0 240.000000 240.000000"
 preserveAspectRatio="xMidYMid meet">
<metadata>
Created by potrace 1.11, written by Peter Selinger 2001-2013
</metadata>
<g transform="translate(0.000000,240.000000) scale(0.100000,-0.100000)"
fill="#000000" stroke="none">
<path d="M1030 2357 c-197 -59 -339 -196 -407 -394 -22 -66 -26 -94 -26 -188
0 -124 23 -210 85 -312 37 -62 147 -183 165 -183 7 0 31 18 54 41 41 40 41 40
23 62 -11 11 -31 32 -46 44 -15 13 -45 51 -67 84 -149 224 -90 516 133 661
311 201 726 -22 726 -391 0 -93 -25 -183 -71 -256 -17 -27 -177 -196 -355
-375 -178 -179 -334 -340 -348 -358 -13 -18 -32 -62 -41 -97 -46 -168 34 -339
194 -417 58 -29 75 -33 151 -33 76 0 93 4 151 32 79 39 140 102 177 181 22 48
27 71 27 142 0 109 -29 175 -117 266 l-62 65 -43 -43 c-24 -23 -43 -47 -43
-53 0 -5 23 -32 50 -59 82 -83 103 -157 69 -250 -35 -93 -110 -146 -209 -146
-71 0 -126 26 -172 79 -56 65 -68 153 -34 234 9 22 137 159 346 369 183 183
347 356 365 383 158 244 126 555 -80 760 -40 40 -97 84 -133 103 -139 73 -317
92 -462 49z"/>
<path d="M1130 2129 c-154 -31 -275 -167 -288 -324 -6 -86 24 -184 76 -247 50
-60 95 -108 102 -108 7 0 60 49 79 73 12 15 7 23 -39 74 -65 71 -83 111 -82
184 0 125 99 219 228 219 46 0 130 -37 161 -71 54 -59 71 -172 37 -246 -11
-24 -144 -165 -353 -376 -188 -189 -350 -360 -368 -390 -147 -236 -107 -557
93 -748 77 -73 132 -107 229 -141 69 -24 95 -28 191 -28 183 0 301 47 425 170
119 119 175 246 182 415 7 162 -52 310 -175 439 l-77 81 -46 -46 -47 -46 57
-59 c111 -113 155 -214 155 -354 0 -139 -51 -253 -155 -348 -90 -82 -191 -122
-310 -122 -169 0 -315 80 -406 221 -92 144 -92 356 1 502 17 27 180 199 364
383 225 227 340 350 356 380 12 25 27 74 33 110 40 234 -187 451 -423 403z"/>
</g>
</svg>
